<svg width="199" height="31" viewBox="0 0 199 31" fill="none" xmlns="http://www.w3.org/2000/svg">
<g filter="url(#filter0_diii_12067_686)">
<rect x="0.5" y="1.5" width="195" height="27.75" rx="3" fill="#3980F4"/>
<rect x="0.6875" y="1.6875" width="194.625" height="27.375" rx="2.8125" stroke="#234B9D" stroke-opacity="0.5" stroke-width="0.375"/>
</g>
<path d="M46.1143 12.1655H41.7153V14.8315H45.9302V15.9487H41.7153V20.5H40.4585V11.0483H46.1143V12.1655ZM48.1013 20.5H46.908V13.4097H48.1013V20.5ZM48.1838 12.2227H46.8254V10.9849H48.1838V12.2227ZM53.8589 18.5767V14.6855C53.5627 14.5417 53.2876 14.4401 53.0337 14.3809C52.784 14.3174 52.5344 14.2856 52.2847 14.2856C51.6795 14.2856 51.2035 14.5078 50.8565 14.9521C50.5095 15.3965 50.336 16.0334 50.336 16.8628C50.336 17.6499 50.4671 18.2487 50.7295 18.6592C50.9961 19.0697 51.4256 19.2749 52.0181 19.2749C52.327 19.2749 52.6444 19.2135 52.9702 19.0908C53.3003 18.9681 53.5965 18.7967 53.8589 18.5767ZM49.8472 21.6362C49.9276 21.6701 50.0461 21.7145 50.2027 21.7695C50.3592 21.8288 50.537 21.8838 50.7359 21.9346C50.9559 21.9896 51.159 22.034 51.3452 22.0679C51.5314 22.1017 51.7346 22.1187 51.9546 22.1187C52.3228 22.1187 52.6338 22.07 52.8877 21.9727C53.1459 21.8753 53.3469 21.7399 53.4907 21.5664C53.6262 21.3929 53.7214 21.1919 53.7764 20.9634C53.8314 20.7349 53.8589 20.4746 53.8589 20.1826V19.5605C53.5373 19.8398 53.222 20.0472 52.9131 20.1826C52.6042 20.3138 52.217 20.3794 51.7515 20.3794C50.9432 20.3794 50.3 20.0789 49.8218 19.478C49.3436 18.8771 49.1045 18.0138 49.1045 16.8882C49.1045 16.3 49.187 15.7795 49.3521 15.3267C49.5171 14.8696 49.7393 14.4824 50.0186 14.165C50.2852 13.8604 50.6004 13.6255 50.9644 13.4604C51.3283 13.2954 51.7049 13.2129 52.0943 13.2129C52.4624 13.2129 52.7798 13.2573 53.0464 13.3462C53.3172 13.4308 53.5881 13.5535 53.8589 13.7144L53.9287 13.4097H55.0523V19.6938C55.0523 20.8957 54.7899 21.778 54.2652 22.3408C53.7404 22.9036 52.9385 23.1851 51.8594 23.1851C51.5124 23.1851 51.1569 23.1576 50.793 23.1025C50.4333 23.0475 50.0969 22.9735 49.7837 22.8804V21.6362H49.8472ZM64.5677 20.5V16.3994C64.5677 16.0736 64.555 15.7731 64.5296 15.498C64.5042 15.2188 64.4513 15.0008 64.3709 14.8442C64.2862 14.675 64.1656 14.5501 64.0091 14.4697C63.8525 14.3893 63.6409 14.3491 63.3743 14.3491C63.1289 14.3491 62.8644 14.4253 62.5808 14.5776C62.3015 14.7257 62.0117 14.9416 61.7112 15.2251C61.7154 15.297 61.7197 15.3838 61.7239 15.4854C61.7324 15.5827 61.7366 15.6991 61.7366 15.8345V20.5H60.5432V16.3994C60.5432 16.0736 60.5305 15.7731 60.5052 15.498C60.4798 15.2188 60.4269 15.0008 60.3465 14.8442C60.2618 14.675 60.1412 14.5501 59.9846 14.4697C59.8281 14.3893 59.6165 14.3491 59.3499 14.3491C59.0917 14.3491 58.8209 14.4295 58.5374 14.5903C58.2539 14.7511 57.9788 14.9564 57.7122 15.2061V20.5H56.5188V13.4097H57.7122V14.1968C58.0253 13.8836 58.3343 13.6424 58.6389 13.4731C58.9479 13.2996 59.2864 13.2129 59.6546 13.2129C60.0735 13.2129 60.4438 13.3081 60.7654 13.4985C61.0913 13.689 61.3388 14.0021 61.5081 14.438C61.8678 14.036 62.219 13.7313 62.5618 13.5239C62.9046 13.3166 63.277 13.2129 63.679 13.2129C63.9837 13.2129 64.2609 13.2616 64.5105 13.3589C64.7602 13.452 64.9781 13.6043 65.1643 13.8159C65.3548 14.0317 65.5008 14.3005 65.6023 14.6221C65.7081 14.9437 65.761 15.3478 65.761 15.8345V20.5H64.5677ZM71.1377 18.7544V16.7866C70.8542 16.812 70.4945 16.848 70.0586 16.8945C69.627 16.9368 69.2779 16.9982 69.0113 17.0786C68.6939 17.1759 68.4315 17.3262 68.2242 17.5293C68.0168 17.7282 67.9131 18.0075 67.9131 18.3672C67.9131 18.7734 68.0274 19.0802 68.2559 19.2876C68.4844 19.495 68.8187 19.5986 69.2588 19.5986C69.6355 19.5986 69.9761 19.5182 70.2808 19.3574C70.5855 19.1924 70.8711 18.9914 71.1377 18.7544ZM71.1377 19.7446C71.0404 19.8166 70.9092 19.9181 70.7442 20.0493C70.5834 20.1763 70.4268 20.2778 70.2745 20.354C70.0629 20.464 69.8576 20.5487 69.6587 20.6079C69.4641 20.6672 69.189 20.6968 68.8335 20.6968C68.5415 20.6968 68.2644 20.6418 68.002 20.5317C67.7396 20.4217 67.509 20.2673 67.3101 20.0684C67.1197 19.8737 66.9673 19.6346 66.8531 19.3511C66.7388 19.0633 66.6817 18.7607 66.6817 18.4434C66.6817 17.9525 66.7854 17.5356 66.9927 17.1929C67.2001 16.8459 67.528 16.5708 67.9766 16.3677C68.3744 16.1857 68.8441 16.0609 69.3858 15.9932C69.9274 15.9212 70.5114 15.8683 71.1377 15.8345V15.606C71.1377 15.3267 71.0954 15.1024 71.0108 14.9331C70.9261 14.7596 70.8077 14.6263 70.6553 14.5332C70.503 14.4359 70.3168 14.3724 70.0967 14.3428C69.8767 14.3089 69.6503 14.292 69.4175 14.292C69.1425 14.292 68.8187 14.3343 68.4463 14.4189C68.0739 14.4993 67.7015 14.6178 67.3291 14.7744H67.2593V13.562C67.4794 13.4985 67.7946 13.4287 68.2051 13.3525C68.6156 13.2764 69.0218 13.2383 69.4239 13.2383C69.9105 13.2383 70.321 13.2764 70.6553 13.3525C70.9896 13.4287 71.2901 13.5662 71.5567 13.7651C71.8148 13.9598 72.0074 14.2116 72.1343 14.5205C72.2613 14.8294 72.3247 15.2061 72.3247 15.6504V20.5H71.1377V19.7446Z" fill="white"/>
<g clip-path="url(#clip0_12067_686)">
<path d="M20.833 15.5C20.833 14.0423 22.0147 12.8605 23.4725 12.8605C24.9303 12.8605 26.112 14.0423 26.112 15.5C26.112 16.9578 24.9303 18.1395 23.4725 18.1395C22.0147 18.1395 20.833 16.9578 20.833 15.5Z" fill="#1ABCFE"/>
<path d="M15.5547 20.779C15.5547 19.3213 16.7364 18.1395 18.1942 18.1395H20.8337V20.779C20.8337 22.2368 19.652 23.4186 18.1942 23.4186C16.7364 23.4186 15.5547 22.2368 15.5547 20.779Z" fill="#0ACF83"/>
<path d="M20.833 7.58142V12.8604H23.4725C24.9303 12.8604 26.112 11.6787 26.112 10.2209C26.112 8.76317 24.9303 7.58142 23.4725 7.58142H20.833Z" fill="#FF7262"/>
<path d="M15.5547 10.2209C15.5547 11.6787 16.7364 12.8604 18.1942 12.8604H20.8337V7.58142H18.1942C16.7364 7.58142 15.5547 8.76317 15.5547 10.2209Z" fill="#F24E1E"/>
<path d="M15.5547 15.5C15.5547 16.9578 16.7364 18.1395 18.1942 18.1395H20.8337V12.8605H18.1942C16.7364 12.8605 15.5547 14.0423 15.5547 15.5Z" fill="#A259FF"/>
</g>
<defs>
<filter id="filter0_diii_12067_686" x="-1" y="0" width="199.5" height="32.25" filterUnits="userSpaceOnUse" color-interpolation-filters="sRGB">
<feFlood flood-opacity="0" result="BackgroundImageFix"/>
<feColorMatrix in="SourceAlpha" type="matrix" values="0 0 0 0 0 0 0 0 0 0 0 0 0 0 0 0 0 0 127 0" result="hardAlpha"/>
<feOffset dx="1.5"/>
<feGaussianBlur stdDeviation="0.75"/>
<feComposite in2="hardAlpha" operator="out"/>
<feColorMatrix type="matrix" values="0 0 0 0 0 0 0 0 0 0 0 0 0 0 0 0 0 0 0.07 0"/>
<feBlend mode="normal" in2="BackgroundImageFix" result="effect1_dropShadow_12067_686"/>
<feBlend mode="normal" in="SourceGraphic" in2="effect1_dropShadow_12067_686" result="shape"/>
<feColorMatrix in="SourceAlpha" type="matrix" values="0 0 0 0 0 0 0 0 0 0 0 0 0 0 0 0 0 0 127 0" result="hardAlpha"/>
<feOffset dx="1.125" dy="1.125"/>
<feGaussianBlur stdDeviation="0.375"/>
<feComposite in2="hardAlpha" operator="arithmetic" k2="-1" k3="1"/>
<feColorMatrix type="matrix" values="0 0 0 0 1 0 0 0 0 1 0 0 0 0 1 0 0 0 0.25 0"/>
<feBlend mode="normal" in2="shape" result="effect2_innerShadow_12067_686"/>
<feColorMatrix in="SourceAlpha" type="matrix" values="0 0 0 0 0 0 0 0 0 0 0 0 0 0 0 0 0 0 127 0" result="hardAlpha"/>
<feOffset dy="3"/>
<feGaussianBlur stdDeviation="3"/>
<feComposite in2="hardAlpha" operator="arithmetic" k2="-1" k3="1"/>
<feColorMatrix type="matrix" values="0 0 0 0 1 0 0 0 0 1 0 0 0 0 1 0 0 0 0.15 0"/>
<feBlend mode="normal" in2="effect2_innerShadow_12067_686" result="effect3_innerShadow_12067_686"/>
<feColorMatrix in="SourceAlpha" type="matrix" values="0 0 0 0 0 0 0 0 0 0 0 0 0 0 0 0 0 0 127 0" result="hardAlpha"/>
<feOffset dx="-1.5" dy="-1.5"/>
<feGaussianBlur stdDeviation="0.75"/>
<feComposite in2="hardAlpha" operator="arithmetic" k2="-1" k3="1"/>
<feColorMatrix type="matrix" values="0 0 0 0 0 0 0 0 0 0 0 0 0 0 0 0 0 0 0.1 0"/>
<feBlend mode="normal" in2="effect3_innerShadow_12067_686" result="effect4_innerShadow_12067_686"/>
</filter>
<clipPath id="clip0_12067_686">
<rect width="10.6667" height="16" fill="white" transform="translate(15.5 7.5)"/>
</clipPath>
</defs>
</svg>
